<?xml version="1.0" encoding="utf-8"?><!-- Uploaded to: SVG Repo, www.svgrepo.com, Generator: SVG Repo Mixer Tools -->
<svg width="800px" height="800px" viewBox="0 0 24 24" fill="none" xmlns="http://www.w3.org/2000/svg">
<path fill-rule="evenodd" clip-rule="evenodd" d="M7.37584 4.85915C8.65549 3.61971 10.1969 3 12 3C13.8031 3 15.3372 3.61267 16.6023 4.83803C17.8675 6.06339 18.5 7.54929 18.5 9.29577C18.5 10.169 18.2746 11.169 17.8238 12.2958C17.373 13.4225 16.8277 14.4789 16.1879 15.4648C15.5481 16.4507 14.9156 17.3732 14.2903 18.2324C13.665 19.0916 13.1342 19.7746 12.698 20.2817L12 21C11.8255 20.8028 11.5928 20.5423 11.302 20.2183C11.0112 19.8944 10.4877 19.2465 9.73154 18.2746C8.97539 17.3028 8.31376 16.3592 7.74664 15.4437C7.17953 14.5282 6.66331 13.493 6.19799 12.338C5.73266 11.1831 5.5 10.169 5.5 9.29577C5.5 7.54929 6.12527 6.07043 7.37584 4.85915Z" stroke="#2ba283" stroke-width="2" stroke-linecap="round" stroke-linejoin="round"/>
<path d="M13 9.5C13 10.0523 12.5523 10.5 12 10.5C11.4477 10.5 11 10.0523 11 9.5C11 8.94772 11.4477 8.5 12 8.5C12.5523 8.5 13 8.94772 13 9.5Z" stroke="#2ba283" stroke-width="2" stroke-linecap="round" stroke-linejoin="round"/>
</svg>